# xmcd
#
# Track frame offsets:
#	150
#	17739
#	35618
#	51371
#	68353
#	84715
#	97813
#	112306
#	128832
#	142190
#	161058
#
# Disc length: 2359 seconds
#
# Revision: 2
# Processed by: cddbd v1.5.1PL0 Copyright (c) Steve Scherf et al.
# Submitted via: EasyCDDAExtractor 6.2.0.3
#
DISCID=9809350b
DTITLE=The Molnars
DYEAR=2003
DGENRE=Country
TTITLE0=Just A Little Something For You
TTITLE1=Home
TTITLE2=Leading Somewhere
TTITLE3=Somebody Like Me
TTITLE4=Silver Moon
TTITLE5=Come On Everybody
TTITLE6=Every Little Thing
TTITLE7=We Can Love
TTITLE8=Casa Nova Man
TTITLE9=Remember Me
TTITLE10=I Wish
EXTD=
EXTT0=
EXTT1=
EXTT2=
EXTT3=
EXTT4=
EXTT5=
EXTT6=
EXTT7=
EXTT8=
EXTT9=
EXTT10=
PLAYORDER=
